<svg width="48" height="48" viewBox="0 0 48 48" fill="none" xmlns="http://www.w3.org/2000/svg">
<path d="M32.2061 6.02717C34.9033 3.3296 39.2767 3.32947 41.9741 6.02688C44.6713 8.72405 44.6715 13.097 41.9744 15.7943L39.7396 18.0295L40.6752 19.0275C42.2441 20.7009 42.2019 23.3174 40.5799 24.9394L37.1339 28.3854C36.6457 28.8736 35.8543 28.8736 35.3661 28.3854C34.878 27.8973 34.878 27.1058 35.3661 26.6176L38.8121 23.1716C39.48 22.5038 39.4974 21.4264 38.8514 20.7373L37.971 19.7983L17.8062 39.9655C17.0439 40.7279 16.0904 41.2711 15.0458 41.5381L5.55956 43.9626C5.13183 44.072 4.67816 43.9476 4.36603 43.6353C4.05389 43.3231 3.9296 42.8694 4.03904 42.4417L6.46599 32.9567C6.73303 31.913 7.27584 30.9604 8.03755 30.1986L32.2061 6.02717Z" fill="#ffffff"/>
</svg>
