<svg width="15" height="19" viewBox="0 0 15 19" fill="none" xmlns="http://www.w3.org/2000/svg">
<path d="M7.5 0C4.91119 0 2.8125 2.06638 2.8125 4.61539C2.8125 7.16437 4.91119 9.23077 7.5 9.23077C10.0888 9.23077 12.1875 7.16437 12.1875 4.61539C12.1875 2.06638 10.0888 0 7.5 0ZM1.99214 11.0769C0.892153 11.0769 9.375e-06 11.9544 0 13.038V13.3846C0 15.1179 0.910158 16.4155 2.30634 17.2524C3.67927 18.0754 5.52473 18.4615 7.5 18.4615C9.47527 18.4615 11.3207 18.0754 12.6937 17.2524C14.0898 16.4155 15 15.1179 15 13.3846V13.0379C15 11.9544 14.1078 11.0769 13.0079 11.0769H1.99214Z" fill="white"/>
</svg>
